<?xml version="1.0" encoding="utf-8"?>
<!-- Generator: Adobe Illustrator 16.0.0, SVG Export Plug-In . SVG Version: 6.00 Build 0)  -->
<!DOCTYPE svg PUBLIC "-//W3C//DTD SVG 1.1//EN" "http://www.w3.org/Graphics/SVG/1.1/DTD/svg11.dtd">
<svg version="1.1" id="Layer_1" xmlns="http://www.w3.org/2000/svg" xmlns:xlink="http://www.w3.org/1999/xlink" x="0px" y="0px"
	 width="18.75px" height="20.311px" viewBox="0 0 18.75 20.311" enable-background="new 0 0 18.75 20.311" xml:space="preserve">
<path fill="#E8A579" stroke="#D9CEAD" stroke-width="0.75" stroke-linecap="round" stroke-miterlimit="10" d="M2.147,15.641"/>
<ellipse fill="none" stroke="#A36D5C" stroke-width="0.75" stroke-linecap="round" stroke-linejoin="round" stroke-miterlimit="10" cx="9.541" cy="6.593" rx="0.249" ry="0.243"/>
<ellipse fill="none" stroke="#A36D5C" stroke-width="0.75" stroke-linecap="round" stroke-linejoin="round" stroke-miterlimit="10" cx="8.53" cy="6.593" rx="0.249" ry="0.243"/>
<g>
	
		<polyline fill="none" stroke="#A36D5C" stroke-width="0.75" stroke-linecap="round" stroke-linejoin="round" stroke-miterlimit="10" points="
		9.715,8.578 12.324,9.757 13.959,14.269 15.917,16.269 	"/>
	
		<polyline fill="none" stroke="#A36D5C" stroke-width="0.75" stroke-linecap="round" stroke-linejoin="round" stroke-miterlimit="10" points="
		9.312,9.668 12.331,12.104 11.722,15.068 14.272,19.894 	"/>
	
		<polyline fill="none" stroke="#A36D5C" stroke-width="0.75" stroke-linecap="round" stroke-linejoin="round" stroke-miterlimit="10" points="
		9.055,6.651 9.055,1.817 9.055,1.216 	"/>
	
		<polygon fill="#A36D5C" stroke="#A36D5C" stroke-width="0.75" stroke-linecap="round" stroke-linejoin="round" stroke-miterlimit="10" points="
		8.437,7.266 9.594,7.266 9.973,7.863 9.326,9.668 8.734,9.668 8.118,7.866 	"/>
	
		<polygon fill="#A36D5C" stroke="#A36D5C" stroke-width="0.75" stroke-linecap="round" stroke-linejoin="round" stroke-miterlimit="10" points="
		8.765,9.668 9.326,9.668 9.609,11.473 9.341,15.068 8.741,15.068 8.479,11.473 	"/>
	
		<polyline fill="none" stroke="#A36D5C" stroke-width="0.75" stroke-linecap="round" stroke-linejoin="round" stroke-miterlimit="10" points="
		9.755,8.467 12.315,7.85 12.647,4.263 13.959,0.697 	"/>
	
		<polyline fill="none" stroke="#A36D5C" stroke-width="0.75" stroke-linecap="round" stroke-linejoin="round" stroke-miterlimit="10" points="
		8.354,8.503 5.797,7.888 5.463,4.3 4.208,0.697 	"/>
	
		<path fill="none" stroke="#A36D5C" stroke-width="0.75" stroke-linecap="round" stroke-linejoin="round" stroke-miterlimit="10" d="
		M9.715,8.578"/>
	
		<polyline fill="none" stroke="#A36D5C" stroke-width="0.75" stroke-linecap="round" stroke-linejoin="round" stroke-miterlimit="10" points="
		8.771,9.668 5.751,12.104 6.359,15.068 3.809,19.894 	"/>
	
		<polygon fill="none" stroke="#A36D5C" stroke-width="0.75" stroke-linecap="round" stroke-linejoin="round" stroke-miterlimit="10" points="
		9.541,9.781 9.69,10.392 15.917,11.269 14.125,9.668 	"/>
	
		<path fill="none" stroke="#A36D5C" stroke-width="0.75" stroke-linecap="round" stroke-linejoin="round" stroke-miterlimit="10" d="
		M9.715,8.578"/>
	
		<polyline fill="none" stroke="#A36D5C" stroke-width="0.75" stroke-linecap="round" stroke-linejoin="round" stroke-miterlimit="10" points="
		8.374,8.566 5.765,9.746 3.809,14.019 2.147,15.894 	"/>
	
		<polygon fill="none" stroke="#A36D5C" stroke-width="0.75" stroke-linecap="round" stroke-linejoin="round" stroke-miterlimit="10" points="
		8.53,9.776 8.396,10.39 2.147,11.269 3.809,9.668 	"/>
</g>
</svg>
